<?xml version="1.0" encoding="utf-8"?>
<!DOCTYPE svg PUBLIC "-//W3C//DTD SVG 1.0//EN" "http://www.w3.org/TR/2001/REC-SVG-20010904/DTD/svg10.dtd">
<svg version="1.0" xmlns="http://www.w3.org/2000/svg" width="1254px" height="1254px" viewBox="0 0 1254 1254" preserveAspectRatio="xMidYMid meet">
 <g fill="#fab90c">
  <path d="M 609.12 1149.66 l -11.88 -23.63 -13.23 -7.72 c -7.35 -4.29 -13.35 -8.20 -13.35 -8.69 0 -3.31 3.92 -3.80 28.41 -3.80 l 25.47 0 -0.24 33.31 c -0.24 24.74 -0.73 33.31 -1.84 33.68 -0.98 0.37 -6.12 -8.69 -13.35 -23.15 z "/>
  <path d="M 578.63 1062.84 c -62.94 -11.27 -105.68 -26.33 -155.53 -54.74 -39.55 -22.53 -83.64 -59.39 -114.99 -95.89 -56.58 -65.88 -92.95 -148.30 -102.99 -233.17 l -1.59 -13.47 5.63 -5.76 c 8.45 -8.82 9.55 -8.20 10.53 6.12 3.80 51.43 24.37 116.09 53.52 167.77 35.51 62.82 89.40 118.42 151.12 155.40 51.19 30.74 107.52 50.33 168.75 58.54 3.18 0.37 5.76 1.22 5.76 1.84 0 0.61 -1.47 4.16 -3.31 7.96 -3.67 7.47 -4.16 7.59 -16.90 5.39 z "/>
  <path d="M 658.47 1057.45 c -1.96 -3.92 -3.06 -7.47 -2.45 -7.96 0.49 -0.37 9.31 -2.08 19.35 -3.55 75.56 -11.51 150.26 -45.80 210.63 -96.87 17.63 -14.94 47.64 -46.90 63.80 -67.97 5.76 -7.35 22.53 -32.94 29.02 -44.09 8.33 -14.57 23.02 -45.68 29.39 -62.58 12.25 -32.33 22.53 -74.58 25.47 -104.83 1.84 -18.25 2.45 -18.74 10.78 -10.29 l 5.39 5.51 -0.73 10.16 c -1.71 21.31 -9.18 56.94 -17.02 81.56 -28.17 88.54 -81.07 163.61 -155.28 220.80 -42.62 32.94 -96.62 60.01 -147.81 74.09 -18.25 5.02 -47.76 11.02 -59.15 12.25 l -7.96 0.73 -3.43 -6.98 z "/>
  <path d="M 608.51 1041.29 c -17.14 -16.04 -51.19 -46.41 -73.35 -65.39 -18 -15.31 -66.99 -56.33 -72.74 -60.86 -2.08 -1.59 -3.18 -3.18 -2.45 -3.80 0.61 -0.49 18.12 -1.71 38.94 -2.45 l 37.84 -1.59 43.23 43.35 43.35 43.23 0 29.76 c 0.12 16.41 0 30.13 -0.37 30.37 -0.24 0.24 -6.74 -5.39 -14.45 -12.61 z "/>
  <path d="M 584.87 945.40 c -34.41 -34.78 -41.15 -42.13 -41.15 -44.94 0 -3.06 0.73 -6.74 3.06 -17.14 0.37 -1.71 1.59 -2.82 2.94 -2.82 1.35 0 17.02 14.94 39.07 37.35 20.33 20.57 37.47 37.35 38.33 37.35 0.73 0 18.25 -17.02 38.70 -37.96 20.57 -20.82 38.09 -37.96 39.07 -37.96 0.86 0 1.96 1.22 2.33 2.82 1.84 7.96 4.29 20.82 4.04 21.19 -4.16 4.65 -83.76 83.76 -84.38 83.76 -0.37 0 -19.23 -18.74 -42 -41.64 z "/>
  <path d="M 593.94 881.11 c -26.45 -26.45 -28.90 -29.27 -29.64 -34.04 -0.49 -2.82 -0.86 -86.82 -0.86 -186.63 l -0.12 -181.61 5.27 0 c 4.65 0 7.84 1.96 32.08 18.49 14.82 10.16 27.68 18.74 28.53 19.10 1.10 0.49 1.47 41.02 1.47 197.04 l 0 196.43 -4.04 0 c -3.67 0 -6.86 -2.82 -32.70 -28.78 z "/>
  <path d="M 765.99 902.41 c -8.69 -0.37 -22.29 -0.86 -30.13 -0.98 -9.31 -0.12 -14.82 -0.61 -16.04 -1.59 -2.57 -2.08 -6.61 -22.78 -4.78 -24.61 0.86 -0.86 10.53 -0.73 32.21 0.73 17.02 1.22 31.96 2.08 33.06 2.08 1.96 0 6.61 6.12 15.92 20.57 l 3.43 5.14 -8.94 -0.24 c -4.78 -0.12 -15.92 -0.61 -24.74 -1.10 z "/>
  <path d="M 477.60 664.23 l 0 -200.35 3.80 0.73 c 2.08 0.37 7.59 0.73 12.25 0.73 l 8.45 0 0 198.88 0 198.75 -8.20 0.73 c -4.65 0.49 -10.16 0.86 -12.25 0.86 l -4.04 0 0 -200.35 z "/>
  <path d="M 759.01 863.72 l -7.10 -0.49 0 -198.88 0 -199 8.45 0 c 4.65 0 10.16 -0.37 12.25 -0.73 l 3.80 -0.73 0 200.35 0 200.35 -5.14 -0.24 c -2.94 -0.12 -8.45 -0.37 -12.25 -0.61 z "/>
  <path d="M 156.26 668.64 c -6 -10.04 -11.76 -19.10 -12.86 -20.08 -1.10 -0.98 -10.78 -6.37 -21.55 -12.12 -14.70 -7.84 -19.72 -11.14 -19.96 -12.98 -0.37 -2.57 -0.24 -2.57 33.92 -2.57 l 34.41 0 0 33.06 c 0 25.96 -0.37 33.06 -1.59 33.06 -0.86 0 -6.37 -8.20 -12.37 -18.37 z "/>
  <path d="M 1064.19 666.19 c -4.41 -8.08 -8.57 -15.43 -9.31 -16.53 -0.73 -0.98 -10.41 -6.74 -21.43 -12.61 -15.31 -8.33 -20.21 -11.51 -20.45 -13.47 l -0.37 -2.69 32.45 0 32.57 0 0 30 0 30 -2.69 0 c -2.33 -0.12 -4.29 -2.82 -10.78 -14.70 z "/>
  <path d="M 176.34 610.47 c 0 -3.55 1.59 -5.88 9.92 -15.31 5.51 -6 10.41 -11.02 10.90 -11.02 0.49 0 1.22 0.73 1.59 1.71 0.37 0.86 11.02 7.35 23.76 14.21 12.61 6.86 23.51 12.98 24.12 13.59 0.73 0.61 -12.86 1.10 -34.53 1.10 l -35.76 0 0 -4.29 z "/>
  <path d="M 1083.78 610.59 c 0 -3.43 1.71 -6 9.92 -15.31 5.51 -6.12 10.65 -11.14 11.63 -11.14 0.86 0 2.20 1.10 2.94 2.33 0.61 1.35 2.45 2.82 3.92 3.31 1.59 0.49 11.14 5.27 21.19 10.65 30.13 16.16 31.59 14.33 -11.88 14.33 l -37.72 0 0 -4.16 z "/>
  <path d="M 210.02 577.65 l -6.98 -6.61 0.86 -6 c 5.88 -45.80 14.33 -79.97 28.78 -116.22 21.80 -55.11 53.76 -103.48 96.74 -146.34 67.48 -67.60 150.26 -109.60 242.35 -123.07 18.49 -2.69 17.63 -2.82 22.17 5.02 4.29 7.59 3.80 8.94 -3.06 9.06 -7.84 0.12 -36.37 5.14 -55.35 9.80 -169.61 42 -297.34 188.96 -315.58 362.85 -0.86 9.31 -1.96 17.14 -2.33 17.51 -0.24 0.37 -3.67 -2.45 -7.59 -6 z "/>
  <path d="M 1035.53 582.79 c -0.24 -0.98 -1.10 -8.08 -1.84 -15.92 -5.27 -55.96 -24.86 -116.09 -54.37 -167.04 -7.84 -13.72 -26.94 -41.27 -37.84 -54.86 -13.23 -16.53 -46.05 -49.11 -62.82 -62.58 -51.68 -41.39 -113.40 -70.42 -176.47 -83.27 -12.12 -2.45 -40.78 -6.86 -44.82 -6.86 -0.61 0 0.61 -3.31 2.69 -7.35 3.67 -7.35 3.80 -7.35 9.06 -7.35 13.59 0 52.05 8.08 79.23 16.53 138.63 43.47 249.21 158.59 288.15 300.03 5.14 18.86 8.45 35.39 11.76 58.78 l 2.33 17.14 -3.31 4.16 c -5.02 6.12 -11.14 10.65 -11.76 8.57 z "/>
  <path d="M 612.43 471.23 c -17.14 -11.88 -41.64 -26.82 -56.45 -34.41 l -14.08 -7.23 -4.04 -7.96 c -2.20 -4.29 -3.67 -8.33 -3.31 -8.94 1.71 -2.69 8.57 -0.86 25.23 6.86 21.19 9.67 56.94 27.80 60.86 30.86 2.57 2.08 2.82 2.82 2.45 15.06 l -0.37 12.98 -10.29 -7.23 z "/>
  <path d="M 619.04 441.35 c -15.68 -9.06 -64.54 -32.57 -82.29 -39.68 -2.20 -0.86 -4.04 -2.08 -4.04 -2.69 0 -2.94 10.04 -18.12 12 -18.12 3.43 0 38.33 16.90 61.23 29.76 17.14 9.55 21.68 11.63 23.51 10.65 3.67 -1.96 4.04 -1.47 3.06 3.43 -1.22 7.23 -1.10 12.98 0.37 13.47 2.69 0.86 1.47 3.80 -2.20 5.76 -1.96 0.98 -3.67 1.84 -3.92 1.71 -0.24 0 -3.67 -1.96 -7.72 -4.29 z "/>
  <path d="M 458.74 424.08 c -3.06 -5.14 -5.27 -9.80 -4.90 -10.29 0.24 -0.49 2.20 -1.10 4.41 -1.59 5.27 -0.98 53.76 -4.41 60.25 -4.29 l 5.02 0 5.39 11.02 c 3.06 6 5.27 11.02 4.90 11.27 -0.49 0.49 -56.94 3.31 -65.03 3.31 -4.41 0 -4.78 -0.37 -10.04 -9.43 z "/>
  <path d="M 756.81 432.29 c -10.41 -0.49 -22.66 -0.98 -27.19 -1.10 -5.14 0 -8.33 -0.61 -8.33 -1.47 0 -0.73 2.20 -6 4.78 -11.63 l 4.90 -10.29 8.20 0 c 8.82 0 55.72 3.43 60.13 4.29 2.57 0.61 2.45 1.10 -3.55 11.02 l -6.25 10.41 -6.86 -0.24 c -3.80 -0.12 -15.43 -0.61 -25.84 -0.98 z "/>
  <path d="M 442.82 396.04 c -2.57 -5.14 -4.29 -9.67 -3.67 -10.16 2.45 -2.20 92.46 -7.84 94.29 -5.88 0.49 0.37 -1.84 5.14 -5.02 10.65 -4.29 7.35 -6.37 9.80 -8.33 9.80 -1.47 0 -16.78 1.10 -33.92 2.45 -42.74 3.31 -37.72 4.16 -43.35 -6.86 z "/>
  <path d="M 609.24 398.49 c -18.86 -10.53 -52.17 -27.06 -59.15 -29.27 -4.16 -1.47 -12.86 -2.33 -27.06 -2.82 l -20.94 -0.86 5.76 -7.35 c 3.18 -4.04 20.57 -26.08 38.82 -48.98 71.52 -90.13 71.39 -90.01 75.56 -90.01 0.61 0 1.10 37.35 1.10 93.07 0 51.19 -0.37 93.07 -0.86 93.07 -0.61 0 -6.49 -3.06 -13.23 -6.86 z "/>
  <path d="M 775.79 403.51 c -10.04 -0.86 -24.12 -1.96 -31.23 -2.45 l -12.86 -0.86 -5.14 -9.18 c -2.82 -5.14 -4.90 -9.80 -4.41 -10.53 1.22 -2.08 90.99 2.45 93.32 4.65 0.37 0.37 -1.59 5.02 -4.16 10.41 l -4.78 9.80 -6.25 -0.12 c -3.31 -0.12 -14.33 -0.98 -24.49 -1.71 z "/>
  <path d="M 606.55 182.22 l -9.80 -19.96 -17.39 -9.80 c -9.43 -5.39 -17.14 -10.29 -16.90 -11.02 0.61 -1.84 12.37 -2.82 37.72 -2.94 l 22.78 -0.12 0.86 9.43 c 0.37 5.14 0.73 17.39 0.73 27.31 0 17.76 0 18 -3.31 22.41 -1.96 2.45 -3.80 4.41 -4.16 4.53 -0.37 0 -5.14 -8.94 -10.53 -19.84 z "/>
 </g>
 <g fill="#fdd038">
  <path d="M 621.12 1173.54 c -1.59 -3.31 -1.71 -4.53 -0.49 -4.90 0.98 -0.37 1.47 -3.18 1.59 -8.08 0 -4.16 0.49 -8.69 1.10 -10.04 0.61 -1.59 1.10 3.06 1.10 12.61 0.12 8.20 -0.12 14.94 -0.49 14.94 -0.37 0 -1.59 -1.96 -2.82 -4.53 z "/>
  <path d="M 516.17 1097.25 c -34.53 -8.94 -59.64 -18.49 -94.29 -36.13 -127.11 -64.29 -219.45 -180.02 -252.88 -316.56 -3.18 -13.10 -7.35 -34.04 -7.35 -36.98 0 -2.33 3.43 -0.61 6.86 3.55 2.20 2.69 4.41 4.16 5.51 3.80 0.98 -0.37 4.41 -5.39 7.59 -11.27 4.78 -8.45 6.49 -10.53 8.82 -10.53 2.57 0 2.94 0.98 4.78 11.39 8.08 44.82 21.68 85.36 41.51 124.79 33.43 66.13 82.17 122.58 144.26 167.16 52.17 37.35 114.62 64.17 176.10 75.80 9.18 1.59 18 3.31 19.59 3.67 2.69 0.61 2.33 0.98 -3.67 4.65 -3.67 2.08 -12.12 6.86 -18.86 10.41 -6.74 3.67 -13.59 7.59 -15.19 8.82 -1.59 1.35 -3.18 2.33 -3.67 2.33 -0.37 -0.12 -8.94 -2.20 -19.10 -4.90 z "/>
  <path d="M 717.01 1100.19 c -1.35 -0.98 -7.72 -4.65 -14.08 -8.08 -23.88 -12.74 -24.86 -13.35 -23.02 -15.06 0.86 -0.86 9.06 -3.06 18.37 -4.78 81.44 -15.55 156.63 -54.37 222.63 -114.87 68.70 -62.94 121.24 -157.97 136.54 -247.13 3.67 -21.19 5.63 -22.17 14.70 -6.61 3.31 5.88 6.86 10.90 7.84 11.27 0.98 0.37 3.06 -0.98 4.90 -3.18 1.71 -2.20 4.16 -3.92 5.39 -3.92 2.57 0 2.57 -1.47 -0.49 14.33 -22.41 117.20 -88.54 221.78 -186.88 295.38 -48.98 36.62 -111.07 66.74 -165.08 80.09 -18.49 4.53 -18.12 4.53 -20.82 2.57 z "/>
  <path d="M 569.57 1096.88 c 1.71 -1.59 9.31 -6.37 16.90 -10.53 13.72 -7.72 13.72 -7.84 18 -16.16 2.82 -5.63 4.90 -8.45 6.37 -8.45 1.22 0 4.78 2.69 7.96 5.88 l 5.88 5.88 -0.37 12.86 -0.37 12.74 -28.78 0.24 -28.78 0.37 3.18 -2.82 z "/>
  <path d="M 454.94 902.41 c 0.61 -0.98 4.29 -6.49 8.33 -12.37 6.49 -9.43 7.84 -10.65 11.76 -11.27 4.04 -0.61 23.15 -1.96 53.52 -3.80 l 12.37 -0.73 -2.33 12 c -1.22 6.61 -2.45 12.61 -2.69 13.35 -0.37 0.86 -9.43 1.59 -26.08 2.20 -13.96 0.37 -32.33 1.10 -40.66 1.59 -12.86 0.61 -15.06 0.49 -14.21 -0.98 z "/>
  <path d="M 752.16 662.27 c -0.24 -197.41 -0.24 -198.14 2.20 -198.14 1.59 0 2.45 0.86 2.45 2.45 0 1.35 -0.86 2.45 -1.84 2.45 -1.59 0 -1.84 22.90 -2.20 195.69 l -0.24 195.57 -0.37 -198.02 z "/>
  <path d="M 1072.02 680.15 c -4.41 -7.84 -5.14 -12.37 -0.98 -6 1.35 2.08 2.82 3.06 4.41 2.69 1.96 -0.61 2.20 0.12 2.20 5.39 0 3.31 -0.24 6 -0.61 6 -0.24 0 -2.57 -3.55 -5.02 -8.08 z "/>
  <path d="M 100.42 612.92 c 1.59 -1.96 33.92 -20.21 40.04 -22.53 3.18 -1.35 5.51 -4.53 13.23 -18 8.69 -15.19 9.55 -16.41 12.98 -16.41 l 3.55 0 0 29.39 0 29.39 -35.64 0 c -31.11 0 -35.51 -0.24 -34.17 -1.84 z "/>
  <path d="M 1010.30 612.92 c 1.59 -1.96 10.41 -7.10 36.49 -21.06 7.35 -3.92 7.47 -4.04 16.90 -21.80 6.98 -13.10 10.04 -17.76 11.63 -17.76 2.20 0 2.33 1.59 2.33 31.23 l 0 31.23 -34.41 0 c -30.49 0 -34.29 -0.24 -32.94 -1.84 z "/>
  <path d="M 183.81 534.54 c -5.27 -9.67 -8.33 -14.08 -9.80 -14.08 -2.57 0 -6.37 3.92 -9.43 9.80 -3.31 6.49 -3.55 2.20 -0.49 -13.84 11.14 -58.90 34.29 -117.32 67.11 -168.87 52.17 -82.29 131.65 -149.28 221.41 -187 18.25 -7.59 51.68 -18.74 64.90 -21.55 9.80 -2.20 10.04 -2.20 13.47 0.24 1.96 1.35 8.45 4.78 14.33 7.47 12.37 5.76 33.06 17.39 32.33 18.12 -0.24 0.24 -7.35 1.59 -15.68 3.06 -139.24 22.66 -262.07 113.77 -326.24 241.98 -20.45 40.90 -34.17 82.66 -40.53 122.83 -1.22 7.72 -2.57 14.45 -2.94 15.06 -0.49 0.49 -4.29 -5.39 -8.45 -13.23 z "/>
  <path d="M 1061.37 547.28 c -0.37 -0.98 -1.84 -8.82 -3.31 -17.63 -3.80 -21.55 -8.57 -40.41 -16.53 -64.05 -51.92 -153.93 -188.22 -271.01 -346.69 -297.83 -8.20 -1.35 -15.19 -2.45 -15.68 -2.45 -1.71 0 0.86 -2.69 5.51 -5.51 2.57 -1.71 5.51 -3.06 6.49 -3.06 0.86 0 2.45 -0.86 3.31 -1.96 1.96 -2.33 32.94 -17.63 35.76 -17.63 3.55 0 32.08 8.57 51.07 15.43 19.35 6.98 56.33 24.25 74.09 34.41 39.31 22.90 71.27 47.88 104.21 81.31 64.78 66.25 107.52 145.24 127.73 236.47 2.08 9.31 3.80 17.63 3.80 18.61 0 3.18 -3.80 3.31 -6.37 0.12 -4.16 -5.39 -6.37 -4.04 -12.74 7.72 -8.82 16.16 -10.16 18.12 -10.65 16.04 z "/>
  <path d="M 559.65 130.54 c 2.20 -2.20 33.31 -21.55 34.66 -21.55 0.49 0 2.33 -3.18 4.04 -6.98 8.69 -19.96 21.92 -45.68 23.27 -45.68 2.57 0 3.06 8.45 2.69 42.86 l -0.37 32.45 -33.06 0.37 c -29.15 0.24 -32.82 0.12 -31.23 -1.47 z "/>
 </g>
 <g fill="#dc900e">
  <path d="M 630.67 1140.72 l 0 -34.90 29.39 0 c 16.16 0 29.39 0.24 29.39 0.61 0 0.24 -7.23 4.78 -16.04 9.92 l -16.04 9.55 -12.37 24.86 c -6.86 13.72 -12.86 24.86 -13.35 24.86 -0.61 0 -0.98 -15.68 -0.98 -34.90 z "/>
  <path d="M 623.82 1159.09 c 0 -6 0.12 -8.69 0.37 -5.88 0.24 2.82 0.24 7.84 0 11.02 -0.24 3.18 -0.37 0.98 -0.37 -5.14 z "/>
  <path d="M 630.67 1085.86 c 0 -13.59 0.12 -13.96 3.43 -17.02 8.69 -8.08 11.63 -7.72 16.29 2.08 4.04 8.45 3.80 8.20 31.96 23.39 9.92 5.27 9.43 5.39 -22.04 5.39 l -29.64 0 0 -13.84 z "/>
  <path d="M 630.67 1024.75 l 0.12 -29.76 43.23 -43.72 43.23 -43.84 7.23 0 c 12.74 -0.12 71.52 2.94 71.52 3.67 -0.12 0.37 -6 5.39 -13.23 11.27 -43.47 35.27 -96.13 80.82 -143.65 124.42 l -8.45 7.84 0 -29.88 z "/>
  <path d="M 516.05 860.29 c -0.24 -0.61 -0.37 -94.29 -0.24 -208.18 l 0.37 -206.96 9.55 -0.37 9.43 -0.37 -0.24 207.94 -0.37 207.94 -9.06 0.61 c -5.39 0.37 -9.18 0.12 -9.43 -0.61 z "/>
  <path d="M 719.70 860.04 c -0.49 -0.37 -0.86 -94.05 -0.86 -208.18 l 0 -207.33 9.80 0 9.80 0 0 208.18 0 208.18 -8.94 0 c -5.02 0 -9.43 -0.37 -9.80 -0.86 z "/>
  <path d="M 1083.78 655.78 l 0 -34.90 38.33 0 38.21 0 -25.35 13.47 -25.23 13.59 -10.41 17.39 c -5.76 9.55 -11.27 19.23 -12.37 21.43 -1.10 2.08 -2.33 3.92 -2.57 3.92 -0.37 0 -0.61 -15.68 -0.61 -34.90 z "/>
  <path d="M 176.59 653.70 l 0.37 -30.86 4.78 -0.98 c 2.69 -0.61 18.74 -0.86 35.88 -0.73 l 31.11 0.37 -24.12 12.86 c -26.94 14.45 -24.12 11.76 -37.84 36.74 -3.92 7.47 -7.96 13.47 -8.82 13.47 -1.35 0 -1.59 -6.12 -1.35 -30.86 z "/>
  <path d="M 176.34 584.51 l 0 -29.76 2.82 0 c 2.20 0 4.29 2.94 11.63 16.65 l 9.06 16.53 -8.45 9.31 c -4.53 5.14 -9.80 11.02 -11.63 13.10 l -3.31 3.80 -0.12 -29.64 z "/>
  <path d="M 1083.78 585 c 0 -13.84 0.37 -25.96 0.73 -27.06 0.37 -1.10 1.96 -1.96 3.55 -1.96 2.20 0 4.29 2.82 11.39 15.43 l 8.82 15.55 -10.04 11.14 c -14.82 16.53 -14.45 16.90 -14.45 -13.10 z "/>
  <path d="M 478.09 467.43 c -0.37 -0.98 -0.49 -6 -0.24 -11.39 l 0.37 -9.67 12 -0.37 11.88 -0.37 0 11.76 0 11.63 -11.63 0 c -8.69 0 -11.88 -0.49 -12.37 -1.59 z "/>
  <path d="M 752.77 468.29 c -0.49 -0.49 -0.86 -5.76 -0.86 -11.76 l 0 -10.78 12.25 0 12.37 0 -0.37 11.39 -0.37 11.27 -11.02 0.37 c -6.12 0.12 -11.51 0 -12 -0.49 z "/>
  <path d="M 630.92 312.03 c 0.37 -82.54 0.61 -93.44 2.20 -93.81 1.84 -0.37 22.17 24.37 89.15 109.11 l 30.86 38.82 -12.61 0 c -19.84 0 -33.55 1.96 -43.23 5.88 -4.78 1.96 -21.31 10.29 -36.86 18.49 -15.68 8.08 -28.66 14.82 -29.02 14.82 -0.49 0 -0.61 -42 -0.49 -93.32 z "/>
  <path d="M 634.10 197.90 l -3.43 -4.29 0 -27.55 0 -27.68 34.04 0 c 28.78 0.12 33.55 0.37 31.72 1.71 -1.22 0.98 -10.29 6.25 -20.33 11.76 l -18.12 10.04 -9.67 19.96 c -5.39 11.02 -9.92 20.08 -10.29 20.21 -0.37 0 -2.08 -1.96 -3.92 -4.16 z "/>
  <path d="M 630.67 95.40 c 0 -36.49 0 -36.74 2.57 -36.37 1.84 0.24 5.14 5.76 13.96 24.25 l 11.51 23.88 18.37 11.63 c 10.16 6.37 18.49 12 18.49 12.61 0 0.49 -14.57 0.86 -32.45 0.86 l -32.45 0 0 -36.86 z "/>
 </g>
 <g fill="#e79c0a">
  <path d="M 630.80 1170.73 c 0.12 -6.12 0.37 -7.10 0.98 -4.16 0.49 2.08 1.22 4.29 1.71 4.90 0.37 0.61 -0.12 2.45 -1.10 4.16 -1.47 2.82 -1.59 2.45 -1.59 -4.90 z "/>
  <path d="M 673.54 1097.62 c 2.69 -1.10 3.67 -3.18 2.20 -4.90 -0.73 -0.86 -0.86 -1.59 -0.49 -1.59 1.22 0 12.98 6.12 12.98 6.74 0 0.37 -3.67 0.61 -8.20 0.49 -4.65 0 -7.47 -0.37 -6.49 -0.73 z "/>
  <path d="M 623.33 906.70 c 0 -2.69 0.24 -3.06 1.84 -1.71 1.59 1.35 1.84 -20.08 1.84 -191.41 0 -173.77 -0.24 -192.88 -1.96 -193.61 -2.82 -1.10 -1.59 -2.20 10.90 -10.90 36.98 -25.72 46.17 -31.47 50.45 -31.47 l 4.29 0 0 186.51 0 186.63 -29.64 29.51 c -26.70 26.70 -30 29.64 -33.68 29.64 -3.55 0 -4.04 -0.37 -4.04 -3.18 z "/>
  <path d="M 176.47 683.33 c -0.12 -4.29 0.24 -6.12 0.98 -5.02 0.61 0.86 1.59 1.96 2.33 2.45 0.73 0.49 0.37 2.33 -1.10 5.02 l -2.20 4.29 0 -6.74 z "/>
  <path d="M 1083.78 636.80 l 0 -15.92 29.76 0.24 29.64 0.37 -28.41 0.24 -28.53 0.37 0 15.31 c 0 9.43 -0.49 15.31 -1.22 15.31 -0.73 0 -1.22 -6.12 -1.22 -15.92 z "/>
  <path d="M 176.83 583.53 c 0.12 -35.51 0.73 -37.11 8.33 -22.66 5.14 9.67 4.65 11.51 -0.73 2.69 l -3.55 -5.76 -1.59 3.67 c -2.08 4.65 -2.33 43.72 -0.37 47.39 0.86 1.59 0.86 2.20 0.12 1.71 -0.73 -0.37 -1.59 0.24 -1.84 1.35 -0.37 1.22 -0.49 -11.51 -0.37 -28.41 z "/>
  <path d="M 1083.78 585.24 c 0 -28.66 0.37 -31.72 4.29 -31.72 0.73 0 5.51 7.23 10.53 16.16 10.16 18.12 10.53 18.74 8.82 17.76 -0.73 -0.49 -4.65 -6.86 -8.82 -14.33 -4.29 -7.35 -7.96 -13.47 -8.33 -13.47 -0.24 0 -1.35 0.86 -2.33 1.84 -1.47 1.47 -1.71 5.39 -1.47 21.06 0.37 19.84 0.73 22.41 2.82 23.88 0.73 0.49 -0.12 2.20 -2.08 4.29 l -3.43 3.43 0 -28.90 z "/>
  <path d="M 630.67 465.11 l 0 -12.61 12 -6.98 c 6.49 -3.80 13.47 -7.59 15.31 -8.20 1.96 -0.73 9.67 -4.41 17.14 -8.20 20.82 -10.29 40.78 -18.86 44.21 -18.86 l 3.18 0 -5.02 9.67 -5.02 9.67 -10.04 4.90 c -12 5.76 -36 20.08 -56.21 33.55 -7.96 5.27 -14.70 9.55 -14.94 9.55 -0.37 0 -0.61 -5.63 -0.61 -12.49 z "/>
  <path d="M 752.16 457.15 l -0.24 -11.39 3.43 0.12 c 2.82 0.24 2.82 0.24 0.61 0.73 -2.57 0.49 -2.69 1.35 -3.18 11.14 l -0.37 10.65 -0.24 -11.27 z "/>
  <path d="M 629.45 442.08 c -1.35 -0.86 -1.84 -3.18 -1.71 -8.82 0.12 -4.29 0.37 -8.57 0.61 -9.67 0.49 -3.55 70.90 -40.41 80.21 -42.13 3.31 -0.73 3.92 -0.24 8.82 8.57 2.94 5.14 5.14 9.55 4.90 9.67 -0.24 0.24 -6.98 3.18 -15.06 6.61 -19.47 8.20 -49.96 22.90 -64.05 30.74 -6.12 3.43 -11.39 6.25 -11.63 6.25 -0.12 0 -1.10 -0.61 -2.08 -1.22 z "/>
  <path d="M 641.08 74.09 c -4.90 -11.14 -6.37 -12.98 -8.08 -10.29 -0.61 1.10 -1.10 1.22 -1.10 0.24 0 -0.73 -0.37 -2.33 -0.73 -3.43 -0.61 -1.59 -0.24 -1.96 1.96 -1.59 2.08 0.24 4.04 3.06 8.57 12.98 3.31 6.86 5.51 12.49 5.02 12.49 -0.49 0 -3.06 -4.65 -5.63 -10.41 z "/>
 </g>
 <g fill="#fdd857">
  <path d="M 587.57 896.90 l -38.94 -39.80 0 -204.51 c 0 -197.77 0.12 -204.39 2.20 -204.39 3.18 0 41.64 24.12 63.92 40.17 10.16 7.35 13.72 8.82 15.31 6.37 1.47 -2.45 3.06 -1.10 3.06 2.45 0 2.08 -0.49 3.67 -1.22 3.67 -0.73 0 -1.22 3.80 -1.22 9.06 0 12.49 -1.22 13.23 -11.14 6.49 -4.29 -2.94 -16.90 -11.63 -28.04 -19.23 -11.14 -7.59 -21.19 -14.08 -22.29 -14.33 -1.96 -0.61 -2.08 10.29 -2.08 177.32 0 97.97 0.37 180.38 0.86 183.20 0.73 4.78 3.18 7.59 29.64 34.04 20.57 20.57 29.39 28.78 30.98 28.29 1.84 -0.49 2.08 0.73 2.08 12.25 0 8.94 0.49 12.74 1.47 12.74 0.73 0 0.12 1.35 -1.47 3.06 -1.59 1.71 -3.18 3.06 -3.55 3.06 -0.37 -0.12 -18.25 -18 -39.55 -39.92 z "/>
  <path d="M 192.88 699.25 c -0.73 -2.20 -1.47 -2.57 -4.41 -1.96 l -3.67 0.73 2.20 -3.67 c 3.18 -5.39 6 -4.78 6.86 1.47 0.73 5.88 0.24 7.47 -0.98 3.43 z "/>
  <path d="M 1075.94 687.37 c -0.37 -1.22 -0.24 -3.80 0.37 -5.88 1.10 -3.43 1.10 -3.31 1.22 2.20 0.12 6 -0.49 7.35 -1.59 3.67 z "/>
  <path d="M 159.93 613.53 c 0.61 -0.61 2.69 -1.35 4.41 -1.47 l 3.31 -0.24 0.12 -26.08 c 0 -19.59 -0.24 -26.08 -1.35 -26.08 -0.86 0 -1.10 0.37 -0.73 0.86 1.22 1.22 -1.59 4.04 -4.04 4.04 -1.22 0 -2.45 0.73 -2.82 1.59 -0.24 0.73 -0.86 1.22 -1.22 0.86 -1.35 -1.22 8.20 -15.92 10.41 -15.92 2.08 0 2.20 2.08 2.20 31.84 l 0 31.84 -5.76 0 c -3.80 0 -5.39 -0.37 -4.53 -1.22 z "/>
  <path d="M 1076.31 578.38 c 0 -10.04 -0.49 -19.10 -0.98 -20.45 -0.86 -2.08 -0.98 -2.08 -2.82 -0.24 -1.10 0.98 -2.20 2.57 -2.57 3.43 -0.24 0.86 -0.86 1.22 -1.35 0.86 -0.98 -0.86 6.25 -12.12 7.84 -12.12 0.73 0 1.22 8.20 1.22 23.27 0 12.86 -0.24 23.27 -0.61 23.27 -0.37 0 -0.61 -8.08 -0.73 -18 z "/>
  <path d="M 1088.31 528.79 c -1.96 -3.43 -3.31 -6.25 -3.06 -6.49 0.24 -0.12 1.59 -0.73 3.06 -1.10 2.45 -0.73 2.69 -0.24 3.43 6 0.49 3.80 0.73 7.10 0.49 7.35 -0.24 0.24 -2.08 -2.33 -3.92 -5.76 z "/>
 </g>
 <g fill="#ebbe2d">
  <path d="M 584.87 945.40 c -34.41 -34.78 -41.15 -42.13 -41.15 -44.94 0 -3.06 0.73 -6.74 3.06 -17.14 0.37 -1.71 1.59 -2.82 2.94 -2.82 2.08 0 78.01 75.56 77.03 76.54 -0.61 0.61 -10.65 -9.06 -44.33 -43.23 -16.78 -17.02 -30.98 -30.86 -31.47 -30.86 -1.22 0 -4.41 9.06 -5.39 15.19 l -0.73 4.65 40.78 41.15 c 22.41 22.66 41.39 41.64 42 42.13 0.73 0.61 0.73 0.98 -0.12 0.98 -0.73 0 -19.84 -18.74 -42.62 -41.64 z "/>
  <path d="M 627 920.66 l 0 -13.84 30 -29.88 30 -29.88 0 -182.96 c 0 -100.54 -0.24 -182.83 -0.61 -182.83 -0.73 0 -38.82 25.72 -51.07 34.53 l -8.33 5.88 0 -11.63 c 0 -9.43 0.37 -12.12 2.20 -14.08 5.88 -6.25 70.05 -47.76 73.97 -47.76 2.08 0 2.20 7.35 2.20 204.26 l 0 204.26 -37.35 38.58 c -20.45 21.19 -38.09 38.58 -39.19 38.82 -1.59 0.37 -1.84 -1.59 -1.84 -13.47 z "/>
  <path d="M 501.48 663.13 c 0 -105.68 0.12 -148.79 0.24 -95.76 0.24 53.15 0.24 139.61 0 192.26 -0.12 52.66 -0.24 9.31 -0.24 -96.50 z "/>
  <path d="M 157.36 670.47 c -6.61 -11.02 -12.86 -20.94 -13.96 -21.92 -1.10 -0.98 -11.27 -6.74 -22.78 -12.74 -11.39 -6.12 -20.82 -11.88 -20.82 -12.74 0 -1.22 7.23 -1.71 35.27 -1.96 l 35.15 -0.24 0 34.90 c 0 19.23 -0.24 34.90 -0.49 34.90 -0.24 0 -5.88 -9.06 -12.37 -20.21 z  m 11.63 -19.35 l 0 -29.02 -31.47 0.24 c -21.43 0.24 -31.47 0.73 -31.84 1.71 -0.37 1.10 22.53 14.82 37.23 22.41 1.35 0.73 7.47 9.31 13.35 18.98 6.86 11.27 11.14 17.27 11.76 16.29 0.49 -0.86 0.98 -14.57 0.98 -30.62 z "/>
  <path d="M 1061.86 661.90 l -7.72 -13.84 -22.53 -12 c -12.37 -6.74 -22.29 -12.61 -22.17 -13.35 0.24 -0.73 13.10 -1.35 34.29 -1.59 l 33.92 -0.24 -0.24 6.98 -0.12 7.10 -0.73 -6.12 -0.73 -6.12 -28.17 -0.37 c -15.43 -0.12 -28.78 0 -29.64 0.24 -2.33 0.98 -0.61 4.04 3.06 6 16.29 8.33 33.80 18.74 35.27 20.94 4.53 6.37 14.94 25.23 14.21 25.72 -0.49 0.24 -4.41 -5.76 -8.69 -13.35 z "/>
 </g>
</svg>